<?xml version="1.0" encoding="UTF-8"?>
<svg width="40px" height="40px" viewBox="0 0 40 40" version="1.1" xmlns="http://www.w3.org/2000/svg" xmlns:xlink="http://www.w3.org/1999/xlink">
    <!-- Generator: Sketch 51.1 (57501) - http://www.bohemiancoding.com/sketch -->
    <title>No_White</title>
    <desc>Created with Sketch.</desc>
    <defs></defs>
    <g id="Page-1" stroke="none" stroke-width="1" fill="none" fill-rule="evenodd">
        <g id="Icons" transform="translate(-21.000000, -179.000000)">
            <g id="No_White" transform="translate(21.000000, 179.000000)">
                <circle id="Oval-4" fill="#FFFFFF" fill-rule="nonzero" cx="20" cy="20" r="20"></circle>
                <path d="M28.25,19.25 L20.75,19.25 L20.75,11.75 C20.75,11.336 20.414,11 20,11 C19.586,11 19.25,11.336 19.25,11.75 L19.25,19.25 L11.75,19.25 C11.336,19.25 11,19.586 11,20 C11,20.414 11.336,20.75 11.75,20.75 L19.25,20.75 L19.25,28.25 C19.25,28.664 19.586,29 20,29 C20.414,29 20.75,28.664 20.75,28.25 L20.75,20.75 L28.25,20.75 C28.664,20.75 29,20.414 29,20 C29,19.586 28.664,19.25 28.25,19.25" id="add" stroke="#CD2D2D" stroke-width="1.5" transform="translate(20.000000, 20.000000) rotate(45.000000) translate(-20.000000, -20.000000) "></path>
            </g>
        </g>
    </g>
</svg>