<?xml version="1.0" encoding="UTF-8"?>
<svg width="40px" height="40px" viewBox="0 0 40 40" version="1.1" xmlns="http://www.w3.org/2000/svg" xmlns:xlink="http://www.w3.org/1999/xlink">
    <!-- Generator: Sketch 51.1 (57501) - http://www.bohemiancoding.com/sketch -->
    <title>Waiting_White</title>
    <desc>Created with Sketch.</desc>
    <defs></defs>
    <g id="Page-1" stroke="none" stroke-width="1" fill="none" fill-rule="evenodd">
        <g id="Icons" transform="translate(-21.000000, -229.000000)" fill="#FFFFFF" fill-rule="nonzero">
            <g id="Waiting_White" transform="translate(21.000000, 229.000000)">
                <path d="M20,40 C8.954305,40 0,31.045695 0,20 C0,8.954305 8.954305,0 20,0 C31.045695,0 40,8.954305 40,20 C40,31.045695 31.045695,40 20,40 Z M20,31 C26.0751322,31 31,26.0751322 31,20 C31,13.9248678 26.0751322,9 20,9 C13.9248678,9 9,13.9248678 9,20 C9,26.0751322 13.9248678,31 20,31 Z M20,29 C15.0294373,29 11,24.9705627 11,20 C11,15.0294373 15.0294373,11 20,11 C24.9705627,11 29,15.0294373 29,20 C29,24.9705627 24.9705627,29 20,29 Z M24.0198086,22.4782393 L21.0295681,19.6848042 L21.0295681,14.0484619 C21.0295681,13.4961772 20.5818529,13.0484619 20.0295681,13.0484619 C19.4772834,13.0484619 19.0295681,13.4961772 19.0295681,14.0484619 L19.0295681,20.1190864 C19.0295681,20.3961099 19.1444841,20.6607212 19.3469177,20.8498315 L22.6545078,23.9397295 C23.0580871,24.3167469 23.6908859,24.2952142 24.0679033,23.8916348 C24.4449207,23.4880554 24.423388,22.8552567 24.0198086,22.4782393 Z" id="Combined-Shape"></path>
            </g>
        </g>
    </g>
</svg>